<?xml version="1.0" encoding="UTF-8"?>
<svg xmlns="http://www.w3.org/2000/svg" xmlns:xlink="http://www.w3.org/1999/xlink" width="14pt" height="15pt" viewBox="0 0 14 15" version="1.1">
<g id="surface1">
<path style=" stroke:none;fill-rule:nonzero;fill:rgb(0%,0%,0%);fill-opacity:1;" d="M 3.132812 13.125 L 0.230469 13.125 L 0.230469 4.363281 L 3.132812 4.363281 Z M 1.679688 3.167969 C 0.753906 3.167969 0 2.445312 0 1.578125 C 0 0.707031 0.753906 0 1.679688 0 C 2.609375 0 3.363281 0.707031 3.363281 1.574219 C 3.363281 2.445312 2.609375 3.167969 1.679688 3.167969 Z M 13.996094 13.125 L 11.101562 13.125 L 11.101562 8.859375 C 11.101562 7.84375 11.078125 6.539062 9.589844 6.539062 C 8.082031 6.539062 7.851562 7.644531 7.851562 8.785156 L 7.851562 13.125 L 4.953125 13.125 L 4.953125 4.363281 L 7.734375 4.363281 L 7.734375 5.558594 L 7.777344 5.558594 C 8.164062 4.867188 9.109375 4.140625 10.523438 4.140625 C 13.460938 4.140625 14 5.957031 14 8.3125 L 14 13.125 Z M 13.996094 13.125 "/>
</g>
</svg>
